/* XPM */
static char *a56a1615fb2f47a59205f63f5962537b[] = {
/* columns rows colors chars-per-pixel */
"64 64 63 1 ",
"  c black",
". c gray2",
"X c gray4",
"o c gray5",
"O c #131313",
"+ c gray9",
"@ c #181818",
"# c #1D1D1D",
"$ c gray13",
"% c gray14",
"& c #2A2A2A",
"* c gray18",
"= c gray19",
"- c gray21",
"; c gray23",
": c #3E3E3E",
"> c #414141",
", c gray27",
"< c #494949",
"1 c #4C4C4C",
"2 c gray32",
"3 c #555555",
"4 c #585858",
"5 c #5B5B5B",
"6 c #626262",
"7 c #656565",
"8 c gray42",
"9 c #6F6F6F",
"0 c gray45",
"q c #767676",
"w c gray47",
"e c #7C7C7C",
"r c #818181",
"t c gray53",
"y c gray54",
"u c #929292",
"i c gray58",
"p c #9A9A9A",
"a c gray62",
"s c #A2A2A2",
"d c #A7A7A7",
"f c #AAAAAA",
"g c gray68",
"h c gray69",
"j c #B7B7B7",
"k c #B9B9B9",
"l c gray74",
"z c #C0C0C0",
"x c #C5C5C5",
"c c gray79",
"v c #CDCDCD",
"b c gray83",
"n c #D7D7D7",
"m c #DADADA",
"M c gray87",
"N c #E1E1E1",
"B c #E6E6E6",
"V c gray91",
"C c #ECECEC",
"Z c #F1F1F1",
"A c gray97",
"S c #FBFBFB",
"D c gray100",
/* pixels */
"DDDDDDDSSADDDDDDDDDDDDDDDDDDDDDDDDDDDDDDDDDDDDDDDDDDDDDDDDDDDDDD",
"DDDDDSDDDDDDDDDDDDDDDDDSDDDDDDDDDDDDDDDDDDDDDDDDDDDDDDDDDDDDDDDD",
"DDDDDDSa88xDSDDDDDDDDDDDDDDDDDDDDDDDDDDDDDDDDDDDDDDDDDSDDSDDDDDD",
"DDDSDc@ *$dDSDDDDDDDDDn2SDSDDDDDDDDDDDDDDDDDDDDDDDDDDDDDDDDDDDDD",
"DDSDv <MDDDDDDDDDDDDSDk.CDDDDDDDDDDDDDDDDDDDDDDDDDDDDDDDDvADDDDD",
"DDSDq@SDSSSDDDDDDDDDSDk.ZDSDDDDDDDDDDDDDDDDDDDDSDDDDDDDDZXkDSDDD",
"DDSD=6DSDDSDDDDDDDDDSDk.ZDDDDDDDDDDDDDDDDDDDDDDDDSADSSSDZ.kDSDDD",
"DDDAotDSDDDDDDDDDDDDSDk.CDDDDDDDDDDDDDDDDDDDDDDSDr,DSDDDC.hDSDDD",
"DDDZ.jDSDDDDDDDDDDDDSDk.CDDDDDDDDDDDDDDDDDDDDDDDDNvDZZCAZ.kDSDDD",
"DDDC.kDSDDDDDDDDDDDDSDk.ZDSDDDDDDDDDDDDDDDDDDDDDDDDA% .X& 2jSDDD",
"DDDD#qDASDDDDDDDDDDDSDj.ZDSDDDSSSDDDDDDDDDDDDDDDDDSDxjkf8X@ uDSD",
"DDSDa mDSSSSDDDDDDDDSDk.ZDSSSDDDDSSDSDDDDDDDDDDSDDDDDDSDC.knMDDD",
"DSDDS-#amDDDSSDDDDDDSDk.ZDDDDClkjBDSDDDDDDDDDDDDDDDDSSSDC kDSDDD",
"DDDSDC3  =fmDDSSDDDDSDk.CDVa= .. ocDSDDDDDDDDDDDDAADSDDDZ.kDSDDD",
"DDDDDSDAz<  *lDSSDDDSDk Zw  2jnZS4.nDDDDDDDDDDDSDr,DDDDDZ.kDSDDD",
"DDDDDSSDDDAz1 +hDSDDSDjO0 pCDDDDDD->DSDDDDDDDDDSD0*DSDSDZ.jDSDDD",
"DDDDDDSDSSSDDm3 hDSDSDk  iDSSSSDSDh mDSDDDDDDDDSD0*DSDSDC.jDSDDD",
"DDDDDDDDDDDSSSD9oVDSSDz 7DSDDDSDDDD@qDSDDDDDDDDAD0*DSDDDZ.kDSDDD",
"DDDDDDDDDDDDDSDA%4DDSD9 mDSDDDDDDSDp.CDDDDDDDDDSD9*DSDDDD@tDSDDD",
"DDDDDDDDDDDDDDSDh mDSD: CDDDDDDDDSDV.kDSDDDDDDDSD0*DSDDSD=6DSDDD",
"DDDDDDDDDDDDDDDDS+tDSD: ZDDDDDDDDSDC.kDSDDDDDDDSD0*DSDSSD8*DSDDD",
"DDDDDDDDDDDDDDDSD*0DAD: ZDSDDDDDDDDZ.kDSDDDDDDDAD9*DSDDSD0*DSDDD",
"DDDDDDDDDDDDDDDSD*0DAD9 ZDDDDDDDDSDZ.jDSDDDDDDDSD9*DSDDSD0*DSDDD",
"DDDDDDDDDDDDSDDDZoeDADp ZDSDDDDDDDDZ.jDSDDDDDDDSD0*DSDDSD0*DSDDD",
"DDDDDDDDDDDSDDSD2+CDSDk.CDDDDDDDDDDZ.iDSDDDDDDDSD0*DSDDSD0=DSDDD",
"DDDDDDDDDDDDSSDd jDDSDj.ZDDDDDDDDDDD*0DSDDDDDDDAD0*DSSDDDBnDDDDD",
"DDDDSSSSSSSSDD9 8DSDSDk.CDSDDDDDDSSD=4DSSDDDDDDSD9*DSDDDDDDDDDDD",
"DDDDDDDDDSDDz$ aDSDDSDk.ZDDDDDDDDDSD7,DDDDDDDDDDDxdDDDDDDSDDDDDD",
"DSSDs800907+ 2MDSSDSSDkXZDSDDDDDDDSDDADDDDDDDDDDDDDDDDDDDDDDDDDD",
"DDSDq#=***&7nDSSDDDDDDAcDDDDDDDDDDDDDDDDDDDDDDDDDDSDSDDDDDDDDDDD",
"DDDDDDDDDDDDDSSDDDDDDDDDDDDDDDDDDDDDDSDDDDDDDDDDDDDDDDDDDDDDDDDD",
"DDDDSDSSSDSSDDDDDDDDDDDSDDDDDDDDDDDDDDDDDDDDDDDDDDDDDDDDDDDDDDDD",
"DDDDDSDDDDDDDDDDDDDDDDDDDDDDDDDDDDDDDDDDDDDDDDDDDDDDDDDDDDDDDDDD",
"DDDDDDDDDDSSDDDDDDDDDDDDDDDDDDDDDDDDDDDDDDDDDDDDDDDDDDDDDDDDDDDD",
"DDDDDDDSDSDDDDDDDDDDDDDDDDDDDDDDDDDDDDDDDDDDDDDDDDDDDDDDDDDDDDDD",
"DDDDDDDDDD9aDSDDDDDDDDDDDDDDDDDDDDDDDDDDDDDDDDDDDDDDDDDDDDDDDDDD",
"DDDDDDSDDB iDSDDDDDDDDDDDDDDDDDDDDDDDDDDDDDDDDDDDDDDDDDDDDDDDDDD",
"DDDDDDDSDq#DDSDDDDDDDDDDDDDDDDDDDDDDDDDDDDDDDDDDDDDDDDDDDDDDDDDD",
"DDDDDDDDM pDSDDDDDDDDDDDDDDDDDDDDDDDDDDDDDDDDDDDDDDDDDDDDDDDDDDD",
"DDDDDDSD4@DDDDDDDDDDDDDDDDDDDDDDDDDDDDDDDDDDDDDDDDDDDDDDDDDDDDDD",
"DDDDDDDAotDSDDDDDDDDDDDDDDDDDDDDDDDDDDDDDDDDDDDDDDDDDDDDDDDDDDDD",
"DDDDDSDn lDSDDDDDDDDDDDDDDDDDDDDDDDDDDDDSDDDDDDDDDDDDDDDDDDDDDDD",
"DDDDDSDf CDSDDDDDDDDDDDDDDDDDDDDDDDDDDDDDDDDDDDDDDDDDDDDDDDDDDDD",
"DDDDDSD0$DDDDDDDDDDDDDDDDDDDDDDDDDDDDDDDZDSDDDDDDDDDDDDDDDDDDDDD",
"DDDDDSD6=DDDDDDDDDDDDDDDDDDDDDDDDDDDDSDx$ADDDDDDDDDDDDDDDDDDDDDD",
"DDDDDSD*4DSDDDDDDDDDDDDDDDDSSSDSDDSDDDDVzDDDDDDDDDDDDDDDDDDDDDDD",
"DDDDDSD*0DSDDDDDDDDDDDDDDDDDDDDDSSDDDDDDDDDDDDDDDDDDSSSASSDDSDDD",
"DDDDDSD*9DSDDDDDDDDDDDDDDSDSasllADSDDDDSuBDDDDDDDDSSDDDDDDSDDDDD",
"DDDDSSD*0DSDDDDDDDDDDDDDDSDp .. *MDDDDDZ.kDSDDDSSSDDSp8q9uSDDDDD",
"DDDDDDD*0DADDDDDDDDDDDDDDDD@8DZm- rDSDDC.kDSDDDDDDCq o=*& dDSDDD",
"DDDDSSD*9DSDDDDDDDDDDDDSSDk nDSDDw lDSDZ.kDSDSDdxa @tVDSD8+ZDDDD",
"DDDDDDD*9DSDDDDDDDDDDDDDSD8%DSDSDD4$ZDDZ.kDSDSD>.oeSDSSSDZ@8DSSD",
"DDDDDSD*0DSDDDDDDDDDDDDDDAowDSDDDDV@9DDZ.kDSDSD, gDSSSDDSD9*DSDD",
"DDDDDSD>1DASDDDDDDDDDDDSDx nDDSDDSD9*DDC.kDSDSD*2DADDDDDAD0*DSDD",
"DDDDDSDa cDDDASSDDDDDDDSDw+DDDDDSSD9*DDZ.kDSDSD*0DSSDDDDSD0*DDDD",
"DDDDDDDD6 aZSDDDDSSSDDDSD0*DSDDDDSD0*DDZ.kDSDDD*9DSDDDDDSD9*DSSD",
"DDDDDSDSDw  &9pVDDDDDDDAD0*DSSSSSAD9*DDZ.jDSSSD=2DSSDDDDSD0*DSDD",
"DDDDDDDDDDmf2%. >cZADDDSDy.CDDDDDDD&2DDD+wDSDDD-=DSDDDDDAD0*DSDD",
"DDDDDDDDDSDDDDVg&  3DSDDDV@@fkjkjzy kDAD*9DSSSD=-DSDDDDDSD9*DSDD",
"DDDDDDDDDDSSSDDDSnhnDDDSDDZ4 ... . 0DDSD6*DSDSD2=DSDDDDDSD0=DSSD",
"DDDDDDDDDDSDDSDSSDDDDDDDDDDSCZZZZCZDDDSDs0DSSSD9*DDDDDDDSD0*DSDD",
"DDDDDDDDDDDDDDDDDSSSDDDDDDSSDDDDDDDSDDDDDDDDDDDsqDSDDDDDSDs0DDDD",
"DDDDDDDDDDDDDDDDDDDDDDDDDDDDDSSDDSSDDDSDSSDDDDDDDDDDDDDDDDDDDDDD",
"DDDDDDDDDDDDDDDDDDDDDDDDDDDDDDDDDDDDDDDDDDDSDDDDSDSDDDDDDDDSDSDD"
};
