/* XPM */
static char *_8cb5f2d3a3e494fd54871783d390b72[] = {
/* columns rows colors chars-per-pixel */
"16 16 27 1 ",
"  c gray47",
". c #929292",
"X c #A0A0A0",
"o c gray64",
"O c #A7A7A7",
"+ c #A9A9A9",
"@ c #AEAEAE",
"# c gray69",
"$ c #B6B6B6",
"% c gray73",
"& c gray75",
"* c #C3C3C3",
"= c gray77",
"- c #CBCBCB",
"; c #CDCDCD",
": c gray82",
"> c #D7D7D7",
", c #DADADA",
"< c #DFDFDF",
"1 c #E1E1E1",
"2 c #E4E4E4",
"3 c #EAEAEA",
"4 c #ECECEC",
"5 c gray95",
"6 c gray96",
"7 c gray98",
"8 c gray100",
/* pixels */
"8-;8856888888888",
"3O678*<8788845*8",
"1#878&<868887# 6",
"8*o&8&.#O788<6@8",
"888%;@#8*-88#6#8",
"8886#@,8,&88@8#7",
"844+:-,81&87&738",
"7*#>836887888888",
"8847888887888888",
"86O7878888888788",
"8,%8788887788878",
"8;-8885>65388468",
"8-:868*o@>-6o@+8",
"8>+688O8:O>:#8$1",
"88;+$8#%@&;:=8%2",
"8888687,17542815"
};
