/* XPM */
static char *_2abbd99714c449efc5fd77d9e2e3a0e[] = {
/* columns rows colors chars-per-pixel */
"128 128 40 1 ",
"  c #010101",
". c #070707",
"X c gray3",
"o c #0E0E0E",
"O c #101010",
"+ c #151515",
"@ c #181818",
"# c #1D1D1D",
"$ c gray21",
"% c #3F3F3F",
"& c #444444",
"* c gray28",
"= c #484848",
"- c #4C4C4C",
"; c #535353",
": c #6C6C6C",
"> c #6F6F6F",
", c #727272",
"< c #767676",
"1 c gray48",
"2 c gray49",
"3 c #818181",
"4 c gray52",
"5 c #898989",
"6 c #8D8D8D",
"7 c #A4A4A4",
"8 c gray69",
"9 c #B2B2B2",
"0 c #B6B6B6",
"q c gray72",
"w c gray74",
"e c #C1C1C1",
"r c #C3C3C3",
"t c gray91",
"y c #EAEAEA",
"u c #EFEFEF",
"i c #F1F1F1",
"p c gray97",
"a c #FBFBFB",
"s c gray100",
/* pixels */
"ssssssssssssssssssssssssssssssssssssssssssssssssssssssssssssssssssssssssssssssssssssssssssssssssssssssssssssssssssssssssssssssss",
"ssssssssssssssssssssssssssssssssssssssssssssssssssssssssssssssssssssssssssssssssssssssssssssssssssssssssssssssssssssssssssssssss",
"sssssssssssssssasssassssssssssssssssssssssssssssssssssssssssssssssssssssssssssssssssssssssssssssssssssssssssssssssssssssssssssss",
"sssssssssssssaasssssaassssssssssssssssssssssssssssssssssssssssssssssssssssssssssssssssssssssssssssssssssssssssssssssssssssssssss",
"ssssssssssssassiuuiuassssssssssssssssssssssssaasssasssssssssssssssssssssssssssssssssssssssssssssssssssssssssssssssssssssssssssss",
"ssssssssssaasu3OOO+.-ssassssssssssssssssssssssssssssssssssssssssssssssssssssssssssssssssssssssssssssssssssssssssssssssssssssssss",
"sssssssssasi1O      oisssssssssssssssssssssssp10sassssssssssssssssssssssssssssssssssssssssssssssssssssssssssssssssssssssssssssss",
"ssssssssssp-   O133<qssssssssssssssssssssssas4 +issssssssssssssssssssssssssssssssssssssssssssssssssssssssssssssassaassssssssssss",
"sssssssas0X  O2usasssssssssssssssssssssssssps3 +isssssssssssssssssssssssssssssssssssssssssssssssssssssssssssssssssssssssssssssss",
"ssssssaas2  =pssaaapassssssssssssssssssssssas2 +isssssssssssssssssssssssssssssssssssssssssssssssssssssssssssssssss01isssssssssss",
"sssssssss= +yspssssssssssssssssssssssssssssas3 Oussssssssssssssssssssssssssssssssssssssssssssssssssssssssssssssssi@ 4sasssssssss",
"ssssssasq  1sasssssssssssssssssssssssssssssas3 OissssssssssssssssssssssssssssssssssssssssssssssssasssssssssssssssiO 3sasssssssss",
"ssssssas2  0ssassssssssssssssssssssssssssssas3 OisasssssssssssssssssssssssssssssssssssssssssssssssssaasssssssssasiO 2sasssssssss",
"ssssssas3 +isssssssssssssssssssssssssssssssas3 OissssssssssssssssssssssssssssssssssssssssssssssssssaussssssssssssiO 3sasssssssss",
"sssssass* ousssssssssssssssssssssssssssssssas2 +issssssssssssssssssssssssssssssssssssssssssssssssss- qsasssssssssiO 3spsssssssss",
"sssssssuO *ssasssssssssssssssssssssssssssssps3 OisssssssssssssssssssssssssssssssssssssssssssssssasiO 3saassasssasiO 2sasssssssss",
"sssssssi+ 2sassssssssssssssssssssssssssssssas3 Oussssssssssssssssssssssssssssssssssssssssssssssssssq1psssssssssssuO 2sasssssssss",
"sssssssiO 2saasssssssssssssssssssssssssssssps2 OussssssssssssssssssssssssssssssssssssssssssssssssssssssspiiiiiiisiO 3spassssssss",
"sssssssiO 2saasssssssssssssssssssssssssssssas3 Oissssssssssssssssssssssssssssssssssssssssssssssssasaaass-.OOOOO+11X 1sisasssssss",
"sssssssiO 2sassssssssssssssssssssssssssssssas3 +isassssssssssssssssssssssssssssssssssssssssssssssssssssio           ..*6usasssss",
"sssssasi@ *sssassssssssssssssssssssssssssssas2 Oissssssssssssssssssssssssssssssssssssssssssssssssssssaasq<33225*XO      -ssassss",
"ssssssas3  9sssssssssssssssssssssssssssssssas2 Oisssssssssssssssssssssssssssssssssssssssssssssssssssssssssssssspiyo =;  oussssss",
"ssssssssuO Oysassssssssssssssssssssssssssssps3 Ousssssssssssssssssssssssssssssssssssssssssssssssssssssssaaaaapaasio 2s0>wsasssss",
"sssssssas2  2saaaassassssssssssssssssssssssas3 OussssssssssaaaaaapassssssssssssssssssssssssssssssssssssssssssssasiO 2sasssssssss",
"ssssssassyO .9sasssasssssssssssssssssssssssas3 OisssssssaasssssssssassassssssssssssssssssssssssssssssssssssssssssiO 2sppasssssss",
"ssssssasss0  .+14yasapassssssssssssssssssssas3 +isssaapsspiy42333<0saassssssssssssssssssssssssssssssassssssssssasiO 2sasssssssss",
"sssssssssas9X    .%wssssaasssssssssssssssssas3 Oisspssaae%oO       -ssssssssssssssssssssssssssssssassasssssssssssiO 3sasssssssss",
"ssssssssssasu2OO.   =44yasaasssasssssssssssas2 Oisass0,+.    OOOOO  =aaassssssssssssssssssssssssssspussasssssssssiO 3sasssssssss",
"ssssssssassassupe%.    X%essaaassssssssssssas2 Ousu6*    +134yiuip=  =asassssssssssssssssssssssssss- wsssssssssssiO 3sasssssssss",
"ssssssssssssapsssau2OOX   %eaasasssssssssssas3 Ous=   XO2ysssssssss=  -sssssssssssssssssssssssssssiO 2sasssssssssiO 3sasssssssss",
"ssssssssssssssssaassupe%.  X+2uaasassssssssps3 Op- .+>qaasaaaasssaaa*  0sassssssssssssssssssssssssi+ 3spsssssssssiO 2sasssssssss",
"ssssssssssssssssssaasssay3O   .qsasssssssssas2 #7. *psssaassssssssas0  1spssssssssssssssssssssssssiO 2sasssssssssiO 2sasssssssss",
"sssssssssssssssssssssaaassy2+X $esssassssssas2 .. .qspasassssssssasas= +ysssssssssssssssssssssssssi+ 3sasssssssssiO 3sasssssssss",
"ssssssssssssssssssssssssaasas2  Oisssssssssps2  . 2sassssssssssssssas3  3saassssssssssssssssssssasiO 2sasssssssasuO 3sasssssssss",
"sssssssssssssssssssssssssssasi2X *sssssssssas2 . *aasssssssssssssssssy+ *sssasssssssssssssssssssssuO 3sasssssssssiO 2spsssssssss",
"sssssssssssssssssssssssssasssss*  9saasssssas2  &assssssssssssssssssas2  0sassssssssssssssssssssssiO 2sasssssssssiO 2sasssssssss",
"sssssssssssssssssssssssssssssas0. Ousssssssss*  4sasssssssssssssssssssy+ *ssssssssssssssssssssssssi+ 3sasssssssssi+ *sssssssssss",
"ssssssssssssssssssssssssssssssas9  2sassssas3  Xyssassssssssssssssssaas2  0sasssssssssssssssssssssiO 2sasssssssaas1 Ousassssssss",
"sssssssssssssssssssssssssssssasas* +ysssssas2  oisassssssssssssssssssssyO 3sasssssssssssssssssssssiO 3sassssssssas2 +issssssssss",
"sssssssssssssssssssssssssssssssas4  2sasssas3  oussssssssssssssssssssssiO 3sasssssssssssssssssssssiO 2sassssssssas4  0ssssssssss",
"ssssssssssssssssssssssssssssssassy+ *ssassas2  oissssssssssssssssssssasuO 3sasssssssssssssssssssssuO 3sassssssssssuO 3sassssssss",
"ssssssssssssssssssssssssssssssssas1 Oussssas2  oissssssssssssssssssssssiO 3sasssssssssssssssssssssiO 2sassssssssssiO 2sassssssss",
"ssssssssssssssssssssssssssssssssas3 +issssps3  oissssssssssssssssssssssiO 3sasssssssssssssssssssssiO 3spssssssssssiO 2sassssssss",
"sssssssssssssssssssssssssssssssaas3 Oissssas2  XisassssssssssssssssssssiO 3sasssssssssssssssssssssiO 2sassssssssssiO 3sassssssss",
"ssssssssssssssssssssssssssssssssps2 +issssasq  oissssssssssssssssssssssuO 3sasssssssssssssssssssssiO 3sassssssssasuO 2sassssssss",
"ssssssssssssssssssssssssssssssssas2 Oissssssio oissssssssssssssssssssssuO 3sasssssssssssssssssssssi+ 3sassssssssssiO 3sassssssss",
"ssssssssssssssssssssssssssssssssas1 Oisassssi+ oissssssssssssssssssssssiO 2saassssssssssssssssssssuO 3sassssssssssi+ 2sassssssss",
"sssssssssssssssssssssssssssssssas0  +isssssas1 OussssssssssssssssssssssiO 3sasssssssssssssssssssssuO 2sassssssssssiO 2sassssssss",
"ssssssssssssssssssssssssssssssssyO .9sassssas2 OissssssssssssssssssssssiO 1sasssssssssssssssssssssiO 3spssssssssssuO 3sassssssss",
"sssssssssssssssssssssssssssssaas-  2sasssssps3 +issssssssssssssssssssssiO Opssssssssssssssssssssssi+ 2sassssssssssp@ 4sassssssss",
"sssssssssssssssssssssssssssssps0  *aassssssas2 Oisssssssssssssssssssssas1 OissssssssssssssssssssssiO 2sasssssssssss0<issssssssss",
"ssssssssssssssssssssssssssssase$  0sasassssas3 Oisssssssssssssssssssssps3 OissssssssssssssssssssssiO 3sassssssssssssssssssssssss",
"sssssssssssssssssssssssassasi2X  =sasssssssps2 +usssssssssssssssssssssas2 OissssssssssssssssssssssuO 3sasssssssssasaasssssssssss",
"ssssssssssssssssssssssssaasi- . =asssssssssas3 Oisssssssssssssssssssssas3 .qsassssssssssssssssssssiO 3sassssssssssssssssssssssss",
"ssssssssssassssssssasaaass9X  .9sssssssssssas3 Oisasssssssssssssssssssas4  2sasssssssssssssssssssss- qsassssssssssssssssssssssss",
"ssssssasasssssssssssssaae%   %esassasssssssas3 Oisssssssssssssssssssssasa- qsasssssssssssssssssssssausssssssssssssssssssssssssss",
"ssssssassiiiiiiiuiiuaq,@.  O2isaassssssssssps3 +usssssssssssssssssssssssspussasssssssssssssssssssssasassssssssssssssssssssssssss",
"ssssssas0oOOOOO+OOOOOX   O2usaassssssssssssas4 +isssssssssssssssssssssasassasssssssssssssssssssssasssssassssssssssssssssssssssss",
"ssssssas2 .           .O2ysspssssssssssssssssi10ssssssssssssssssssssssssssssssssssssssssssssssssssssssssssssssssssssssssssssssss",
"ssssssssp423332223333<qassasssssssssssssssssssssssssssssssssssssssssssssssssssssssssssssssssssssssssssssssssssssssssssssssssssss",
"ssssssssssssssssssssssssassssssssssssssssssssaaassasssssssssssssssssssssssssssssssssssssssssssssssssssssssssssssssssssssssssssss",
"sssssssssaaaapaaaaaaapasssasssssssssssssssssssssssssssssssssssssssssssssssssssssssssssssssssssssssssssssssssssssssssssssssssssss",
"ssssssssssssssssssssssssssssssssssssssssssssssssssssssssssssssssssssssssssssssssssssssssssssssssssssssssssssssssssssssssssssssss",
"ssssssssssssssssssssssssssssssssssssssssssssssssssssssssssssssssssssssssssssssssssssssssssssssssssssssssssssssssssssssssssssssss",
"ssssssssssssssssssssssssssssssssssssssssssssssssssssssssssssssssssssssssssssssssssssssssssssssssssssssssssssssssssssssssssssssss",
"ssssssssssssssssssssssssssssssssssssssssssssssssssssssssssssssssssssssssssssssssssssssssssssssssssssssssssssssssssssssssssssssss",
"ssssssssssssssssssssssssssssssssssssssssssssssssssssssssssssssssssssssssssssssssssssssssssssssssssssssssssssssssssssssssssssssss",
"ssssssssssssssssssssssssssssssssssssssssssssssssssssssssssssssssssssssssssssssssssssssssssssssssssssssssssssssssssssssssssssssss",
"ssssssssssssssssssassaasssssssssssssssssssssssssssssssssssssssssssssssssssssssssssssssssssssssssssssssssssssssssssssssssssssssss",
"ssssssssssssssssssssssssssssssssssssssssssssssssssssssssssssssssssssssssssssssssssssssssssssssssssssssssssssssssssssssssssssssss",
"ssssssssssssssssssssp1qsasssssssssssssssssssssssssssssssssssssssssssssssssssssssssssssssssssssssssssssssssssssssssssssssssssssss",
"ssssssssssssssssssas2 +isassssssssssssssssssssssssssssssssssssssssssssssssssssssssssssssssssssssssssssssssssssssssssssssssssssss",
"ssssssssssssssssassi+ Oissssssssssssssssssssssssssssssssssssssssssssssssssssssssssssssssssssssssssssssssssssssssssssssssssssssss",
"sssssssssssssssssasq  3spsssssssssssssssssssssssssssssssssssssssssssssssssssssssssssssssssssssssssssssssssssssssssssssssssssssss",
"sssssssssssssssasas= +usssssssssssssssssssssssssssssssssssssssssssssssssssssssssssssssssssssssssssssssssssssssssssssssssssssssss",
"ssssssssssssssssas0  2saasssssssssssssssssssssssssssssssssssssssssssssssssssssssssssssssssssssssssssssssssssssssssssssssssssssss",
"ssssssssssssssasss* Ousassssssssssssssssssssssssssssssssssssssssssssssssssssssssssssssssssssssssssssssssssssssssssssssssssssssss",
"sssssssssssssssas2  3sasssssssssssssssssssssssssssssssssssssssssssssssssssssssssssssssssssssssssssssssssssssssssssssssssssssssss",
"ssssssssssssssssyO Oysasssssssssssssssssssssssssssssssssssssssssssssssssssssssssssssssssssssssssssssssssssssssssssssssssssssssss",
"ssssssssssssssas4  2sassssssssssssssssssssssssssssssssssssssssssssssssssssssssssssssssssssssssssssssssssssssssssssssssssssssssss",
"ssssssssssssssss* oyssasssssssssssssssssssssssssssssssssssssssssssssssssssssssssssssssssssssssssssssssssssssssssssssssssssssssss",
"sssssssssssssssuO *sssssssssssssssssssssssssssssssssssssssssssssssssssssssssssssssssssssssssssssssssssssssssssssssssssssssssssss",
"sssssssssssssssyO 3sasssssssssssssssssssssssssssssssssssssssssssssssssssssssssssssssssssssssssssssssssssssssssssssssssssssssssss",
"sssssssssssssas3  3spsssssssssssssssssssssssssssssssssssssssssssssssssssssssssssssssssssssssssssssssssssssssssssssssssssssssssss",
"sssssssssssssas2 Oysasssssssssssssssssssssssssssssssssssssssssssssssssssssssssssssssssssssssssssssssssssssssssssssssssssssssssss",
"sssssssssssssas* oissssssssssssssssssssssssssssssssssssssssssssssssssssssssssssssssassssssssssssssssssssssssssssssssssssssssssss",
"ssssssssssssssiO *sasssssssssssssssssssssssssssssssssssssssssssssssssssssssssssssassssssssssssssssssssssssssssssssssssssssssssss",
"ssssssssssssssiO 2sasssssssssssssssssssssssssssssssssssssssssssssssssssssssssassupssssssssssssssssssssssssssssssssssssssssssssss",
"ssssssssssssssiO 3sasssssssssssssssssssssssssssssssssssssssssssssssssssssssssasq -ssssssssssssssssssssssssssssssssssssssssssssss",
"ssssssssssssasq  2sasssssssssssssssssssssssssssssssssssssssssssssssssssssssssps2 Oisssssssssssssssssssssssssssssssssssssssssssss",
"ssssssssssssas2  qsasssssssssssssssssssssssssssssssssssssssssssssssssssssssssssp2qssssssssssssssssssssssssssssssssssssssssssssss",
"ssssssssssssas3 Oissssssssssssssssssssssssssssssssssssssssssssssssssssssssssssssssssssssssssssssssssssssssssssssssssssssssssssss",
"ssssssssssssas2 Oissssssssssssssssssssssssssssssssssssasssasssssssssssssssssssssaassssssssssssssssssssssssssssssssssssssssssssss",
"ssssssssssssas2 Oissssssssssssssssssssssssssssssssssssssasaaaaapsssasssssssssasaasssasssssssssssssssssssssssssssssssssssssssssss",
"ssssssssssssas3 Oisssssssssssssssssssssssssssssssssssssssupssssssasssssssssssssspussssssssssssssssssssssasssssasssasssssssssssss",
"ssssssssssssas2 Oussssssssssssssssssssssssssssssssssassp2.*52324ysasssssssssssss- qsassssssssssssssssssssspssasssssassasssssssss",
"ssssssssssssas3 Oisssssssssssssssssssssssssssssssssssas2        .9saassssssssssiO 3sassssssssssssssssssaassiiiiiiiiassssssssssss",
"ssssssssssssps2 OisssssssssssssssssssssssssssssssssaasuO .OOOOO  o2usasssssssssi+ 3spsssssssssssssssaaasay2+OOOOO+ -sssassssssss",
"ssssssssssssas2 Oissssssssssssssssssssssssssssssssssas2  9auiiu2X  *6usssssssssiO 2sassssssssssssssasssw%.          9sasssssssss",
"ssssssssssssas3 OissssssssssssssssssssssssssssssssassuO +isssssse% . 2sasssssasiO 2sasssssssssasasaasq*    *523331o Oyssssssssss",
"ssssssssssssas2 Oisssssssssssssssssssssssssssssssssas3  2saaasaasa=   qsasassasiO 2sassssssssssipase%   .%wsassaas2  2sasassssss",
"ssssssssssssas3 +issssssssssssssssssssssssssssssssaas1 oysssssssaas9. =sassssssi+ 3sasssssssasq ;p3X  O3yasspaaapaa* .qsasssssss",
"ssssssssssssas3 Oissssssssssssssssssssssssssssssssssi+ =sssssssssaas2  9sasssssiO 3spsssssssas2 O*   -pssaassssssasq. *assssssss",
"ssssssssssssas2 Oissssssssssssssssssssssssssssssssssq  3spssssssssssuO .9saasssiO 2sasssssssas3 .  %wsaaasssssssssas2  4sassssss",
"ssssssssssssas2 Ousssssssssssssssssssssssssssssssass*  0sasssssssssas9  +psssssi+ 3sasssssssas2 . ousaasssssssssssssyO 3sassssss",
"ssssssssssssas3 OusssssssssssssssssssssssssssssssssuO *sssssssssssssas2  qsasssiO 3sasssssssps2   0spsssssssssssssssiO 3sassssss",
"ssssssssssssas2 Oussassssssssssssssssssssssssssssasq  4spsssssssssssssyO 2spsasiO 3sasssssssas2  2sassssssssssssssssiO 2sassssss",
"ssssssssssssssq  2spsssssssssssssssssssssssssssssas1 oyssssssssssssassiO 3sasssiO 3spsssssssas2 oysssassssssssssssssiO 3spssssss",
"ssssssssssssssi+ Ousasssssssssssssssssssssssssssssp+ +isssssssssssssssuO 3sasssiO 3sasssssssas2 Oissssssssssssssssssi+ 2sassssss",
"sssssssssssssas2  =asassasssssssssssssssssssssssssiO 1sassssssssssssssiO 2sasssiO 2sasssssssas3 OissssssssssssssssasiO 3sassssss",
"sssssssssssssssa=  -psssaaassassssssssssssssssssssiO 3sassssssssssssssiO 3spsssi+ 3spsssssssas3 OissssssssssssssssssiO 3spssssss",
"ssssssssssssssass=  O2yipssssaasssssssssssssssssasiO 2saasssssssssssssi+ 2sasssiO 2sasssssssas2 +issssssssssssssssssiO 2sassssss",
"sssssssssssssssasa=   +.*6yiisssaassssssssssssssssiO 2sassssssssssssasiO 3sasasiO 3sasssssssas2 Oyssssssssssssssssssi+ 2sassssss",
"ssssssssssssssssaas9X     OO@,0assaasassssssssssssi+ 2sassssssssssssssyo 3sasssiO 1sasssssssas2  3spssssssssssssssasiO 3sassssss",
"sssssssssssssssssassy34*.     .@>qsssssasassssssssiO *saasasssssssssas4  4sasssi+ +issssssssas2  2sassssssssssssssssiO 3sassssss",
"sssssssssssssssssssasssay421+.   o,qayissssssssssss*  9sapaaaaaapaapas* oyssssas1 Oissssssssas3  3sassssssssssssssssiO 3sassssss",
"ssssssssssssssssssssaapasssaa02=   X+Oo0sasssssssas0  o2issssssssssss9  *sssssas3 Oissssssssps2  2sassssssssssssssssuO 2sassssss",
"ssssssssssssssssssssssssaaapssss9XO    2sasssssssass-   *522333232331o. 0saassps2 Ousassssssas2  2sassssssssssssssssiO 3sassssss",
"sssssssssssssssssssssssssssssaaasiy4323psssssssssssasw% .              =ssssssasq  4sassssssas4  2sassssssssssssssssi+ 3spssssss",
"ssssssssssssssssssssssssssssssssssssssssssssssssssssasa=.+OOOOOOOOOOOO2pssssssssiO 2sassssssasyO 2sassssssssssssssasiO 2sassssss",
"sssssssssssssssssssssssssssssssssasapaasssssssssssssaaspuuiiiiiiiiiuiusassssssssi+ 5sassssssssiO 3sassssssssssssssssi+ 3sassssss",
"sssssssssssssssssssssssssssssssssssssssssssssssssssssssassssssssssssssassssssssas01issssssssssi+ 2spssssssssssssssssiO 2sassssss",
"sssssssssssssssssssssssssssssssssssssssssssssssssssssssaassssssasssassasasssssssssssssssssssssi@ 4sassssssssssssssssi@ 4sassssss",
"sssssssssssssssssssssssssssssssssssssssssssssssssssssssssssssssssssssssssssssssssaassssssssssas01psssssssssssssssssss01isassssss",
"ssssssssssssssssssssssssssssssssssssssssssssssssssssssssssssssssssssssssssssssssssssssssssssssssssssssssssssssssssssssssssssssss",
"sssssssssssssssssssssssssssssssssssssssssssssssssssssssssssssssssssssssssssssssssssssssssssssssapssssssssssssssssssasaasssssssss",
"ssssssssssssssssssssssssssssssssssssssssssssssssssssssssssssssssssssssssssssssssssssssssssssssssssssssssssssssssssssssssssssssss",
"ssssssssssssssssssssssssssssssssssssssssssssssssssssssssssssssssssssssssssssssssssssssssssssssssssssssssssssssssssssssssssssssss"
};
