/* XPM */
static char *ab155c2d49274667b2d9ff801b5f4001[] = {
/* columns rows colors chars-per-pixel */
"32 32 49 1 ",
"  c #353535",
". c #3E3E3E",
"X c gray27",
"o c #494949",
"O c gray30",
"+ c gray32",
"@ c #555555",
"# c #5A5A5A",
"$ c #5D5D5D",
"% c #606060",
"& c #646464",
"* c gray42",
"= c #6C6C6C",
"- c #727272",
"; c #767676",
": c gray47",
"> c gray50",
", c #848484",
"< c gray52",
"1 c #898989",
"2 c #8E8E8E",
"3 c gray57",
"4 c gray59",
"5 c #9B9B9B",
"6 c #9F9F9F",
"7 c #A0A0A0",
"8 c #A5A5A5",
"9 c #A9A9A9",
"0 c #AEAEAE",
"q c gray69",
"w c #B4B4B4",
"e c #BBBBBB",
"r c gray74",
"t c #C1C1C1",
"y c gray78",
"u c #CACACA",
"i c gray81",
"p c #D0D0D0",
"a c #D5D5D5",
"s c gray86",
"d c #DDDDDD",
"f c gray88",
"g c #E7E7E7",
"h c gray92",
"j c #EFEFEF",
"k c gray94",
"l c gray97",
"z c gray98",
"x c gray100",
/* pixels */
"xxxxxxxxxxxxxxxxxxxxxxxxxxxxzxxx",
"xxh-%fxxxxxikxzxxxxxxxxxxzxxxxxx",
"zx$7lzxxxzx-dxxxxxxxxxxzxxzxqsxz",
"xh%xxxxxxzx-dxxxxxxxxxxxsixx>yxz",
"xd-xlzxxxzx-dxzxzxxzxxxxkf2,o3xx",
"xz@fxxxzxxx=sxzxxzxxxxxxxxuu#+fx",
"xxeO,ylxxzx-da,=-hxxxxxxzzzx>yxx",
"xxxk0-#9xzx:@&qf0#xxxxzxw6xx>txz",
"xxzxxxj#5xx+%xxzx=rxxxzx03xx>yxz",
"xxxxzzxl@hx.dxzzxy;xzxzx04xx29xz",
"xxxxxxzx2qx dxzxxd-xzxzx94xx94xz",
"xxzxxxzx,0x+dxxzxs-xzxzx04xx03xz",
"xxxxxzxpOzx-dxxxxg&xzxzx94xxitxx",
"xxxxxz7Xixx-sxzxxl*zxxxxywxzxxxx",
"xx,%*#,jxzx9hxxxzxlxxxxxxxxxxzxx",
"xxkkjlxzxxxxxxxxxxxxzxxxxxxzxxxx",
"xxxxxzzxxxxzxxxxxxxxxxxxxxxxxxxx",
"xxxxlyxxxxxxxxxxxxxxxxxxxxxxxxxx",
"xxzxr=xxxxxxxxxxxxxxxxxxxxxxxxxx",
"xzxx%pxzxxxxxxxxxxxxxxxxxxxxxxxx",
"xxxs%xxxxxxxxxxxxxxxxxxxxxxxxxxx",
"xzxw,xzxxxxxxxzzxzxljxzxxxxxzxxx",
"xzx55xzxxxxzxxxxzzxgyxzxxzzxxxxx",
"xzx49xzxxxxxxzttlxxzgxxxxxzxxzxx",
"xzx49xzxxxxzx8O>@sxs-xzxxy**@sxx",
"xzx49xzxxxxzx%sxtOxd-xxro*yxq*xx",
"xzx47xzxzxxxa&xlx28j*xx3&xxxx&jx",
"xxxdOuzxxxzx03xlx96k=xx40xlxx*kx",
"xxzxp&$*qgzx0>xzx46l&xx34xzxx*kx",
"xxxxxxli;1xxl*%--ofx%lx42xzxx&kx",
"xxxxzzxxxxxxxzsdsjxxulxe9xzxx,lx",
"xxxxxxxzzzxxxzxxxxxxxxxxxxxxxxxx"
};
